<?xml version="1.0" encoding="utf-8" standalone="no"?>
<!DOCTYPE svg PUBLIC "-//W3C//DTD SVG 1.1//EN"
  "http://www.w3.org/Graphics/SVG/1.1/DTD/svg11.dtd">
<svg xmlns:xlink="http://www.w3.org/1999/xlink" width="864pt" height="380.16pt" viewBox="0 0 864 380.16" xmlns="http://www.w3.org/2000/svg" version="1.1">
 <title>RAL-MoE-ROM / C: independent charts, common physical space</title>
 <metadata>
  <rdf:RDF xmlns:dc="http://purl.org/dc/elements/1.1/" xmlns:cc="http://creativecommons.org/ns#" xmlns:rdf="http://www.w3.org/1999/02/22-rdf-syntax-ns#">
   <cc:Work>
    <dc:type rdf:resource="http://purl.org/dc/dcmitype/StillImage"/>
    <dc:title>RAL-MoE-ROM / C: independent charts, common physical space</dc:title>
    <dc:format>image/svg+xml</dc:format>
    <dc:creator>
     <cc:Agent>
      <dc:title>Matplotlib v3.8.4, https://matplotlib.org/</dc:title>
     </cc:Agent>
    </dc:creator>
   </cc:Work>
  </rdf:RDF>
 </metadata>
 <defs>
  <style type="text/css">*{stroke-linejoin: round; stroke-linecap: butt}</style>
 </defs>
 <g id="figure_1">
  <g id="patch_1">
   <path d="M 0 380.16 
L 864 380.16 
L 864 0 
L 0 0 
z
" style="fill: #ffffff"/>
  </g>
  <g id="axes_1">
   <g id="patch_2">
    <path d="M 100.656 35.424 
L 175.824 35.424 
Q 181.44 35.424 181.44 41.04 
L 181.44 81.648 
Q 181.44 87.264 175.824 87.264 
L 100.656 87.264 
Q 95.04 87.264 95.04 81.648 
L 95.04 41.04 
Q 95.04 35.424 100.656 35.424 
z
" clip-path="url(#p3d12db3f3c)" style="fill: #f1edf8; stroke: #8066ab; stroke-width: 1.25; stroke-linejoin: miter"/>
   </g>
   <g id="patch_3">
    <path d="M 247.536 32.832 
L 447.984 32.832 
Q 453.6 32.832 453.6 38.448 
L 453.6 94.608 
Q 453.6 100.224 447.984 100.224 
L 247.536 100.224 
Q 241.92 100.224 241.92 94.608 
L 241.92 38.448 
Q 241.92 32.832 247.536 32.832 
z
" clip-path="url(#p3d12db3f3c)" style="fill: #fcfbfe; stroke-dasharray: 5,3.75; stroke-dashoffset: 0; stroke: #b9adcb; stroke-width: 1.25; stroke-linejoin: miter"/>
   </g>
   <g id="patch_4">
    <path d="M 270 42.336 
L 300.24 42.336 
Q 305.856 42.336 305.856 47.952 
L 305.856 73.008 
Q 305.856 78.624 300.24 78.624 
L 270 78.624 
Q 264.384 78.624 264.384 73.008 
L 264.384 47.952 
Q 264.384 42.336 270 42.336 
z
" clip-path="url(#p3d12db3f3c)" style="fill: #f2f3f5; stroke: #c7cdd3; stroke-width: 1.25; stroke-linejoin: miter"/>
   </g>
   <g id="patch_5">
    <path d="M 332.64 42.336 
L 362.88 42.336 
Q 368.496 42.336 368.496 47.952 
L 368.496 73.008 
Q 368.496 78.624 362.88 78.624 
L 332.64 78.624 
Q 327.024 78.624 327.024 73.008 
L 327.024 47.952 
Q 327.024 42.336 332.64 42.336 
z
" clip-path="url(#p3d12db3f3c)" style="fill: #fff4e8; stroke: #ce8849; stroke-width: 1.25; stroke-linejoin: miter"/>
   </g>
   <g id="patch_6">
    <path d="M 395.28 42.336 
L 425.52 42.336 
Q 431.136 42.336 431.136 47.952 
L 431.136 73.008 
Q 431.136 78.624 425.52 78.624 
L 395.28 78.624 
Q 389.664 78.624 389.664 73.008 
L 389.664 47.952 
Q 389.664 42.336 395.28 42.336 
z
" clip-path="url(#p3d12db3f3c)" style="fill: #fff4e8; stroke: #ce8849; stroke-width: 1.25; stroke-linejoin: miter"/>
   </g>
   <g id="patch_7">
    <path d="M 247.536 121.824 
L 447.984 121.824 
Q 453.6 121.824 453.6 127.44 
L 453.6 317.52 
Q 453.6 323.136 447.984 323.136 
L 247.536 323.136 
Q 241.92 323.136 241.92 317.52 
L 241.92 127.44 
Q 241.92 121.824 247.536 121.824 
z
" clip-path="url(#p3d12db3f3c)" style="fill: #fffcf8; stroke-dasharray: 5,3.75; stroke-dashoffset: 0; stroke: #e8d0b9; stroke-width: 1.25; stroke-linejoin: miter"/>
   </g>
   <g id="patch_8">
    <path d="M 562.896 32.832 
L 845.424 32.832 
Q 851.04 32.832 851.04 38.448 
L 851.04 308.88 
Q 851.04 314.496 845.424 314.496 
L 562.896 314.496 
Q 557.28 314.496 557.28 308.88 
L 557.28 38.448 
Q 557.28 32.832 562.896 32.832 
z
" clip-path="url(#p3d12db3f3c)" style="fill: #f7fbf9; stroke: #b5d2c8; stroke-width: 1.25; stroke-linejoin: miter"/>
   </g>
   <g id="patch_9">
    <path d="M 697.68 187.488 
L 764.208 187.488 
Q 769.824 187.488 769.824 193.104 
L 769.824 240.624 
Q 769.824 246.24 764.208 246.24 
L 697.68 246.24 
Q 692.064 246.24 692.064 240.624 
L 692.064 193.104 
Q 692.064 187.488 697.68 187.488 
z
" clip-path="url(#p3d12db3f3c)" style="fill: #eef7f3; stroke: #4e8f7e; stroke-width: 1.25; stroke-linejoin: miter"/>
   </g>
   <g id="patch_10">
    <path d="M 277.776 328.32 
L 413.424 328.32 
Q 419.04 328.32 419.04 333.936 
L 419.04 357.264 
Q 419.04 362.88 413.424 362.88 
L 277.776 362.88 
Q 272.16 362.88 272.16 357.264 
L 272.16 333.936 
Q 272.16 328.32 277.776 328.32 
z
" clip-path="url(#p3d12db3f3c)" style="fill: #edf5fb; stroke: #487fa8; stroke-width: 1.25; stroke-linejoin: miter"/>
   </g>
   <g id="patch_11">
    <path d="M 606.096 328.32 
L 780.624 328.32 
Q 786.24 328.32 786.24 333.936 
L 786.24 357.264 
Q 786.24 362.88 780.624 362.88 
L 606.096 362.88 
Q 600.48 362.88 600.48 357.264 
L 600.48 333.936 
Q 600.48 328.32 606.096 328.32 
z
" clip-path="url(#p3d12db3f3c)" style="fill: #f1edf8; stroke: #8066ab; stroke-width: 1.25; stroke-linejoin: miter"/>
   </g>
   <g id="patch_12">
    <path d="M 286.848 168.48 
L 381.888 151.2 
L 425.088 192.672 
L 321.408 204.768 
z
" clip-path="url(#p3d12db3f3c)" style="fill: #fff4e8; stroke: #ddb58e; stroke-width: 1.05; stroke-linejoin: miter"/>
   </g>
   <g id="patch_13">
    <path d="M 286.848 256.608 
L 381.888 239.328 
L 425.088 280.8 
L 321.408 292.896 
z
" clip-path="url(#p3d12db3f3c)" style="fill: #fff4e8; stroke: #ddb58e; stroke-width: 1.05; stroke-linejoin: miter"/>
   </g>
   <g id="patch_14">
    <path d="M 478.656 163.296 
L 513.216 158.112 
L 513.216 199.584 
L 478.656 194.4 
z
" clip-path="url(#p3d12db3f3c)" style="fill: #edf5fb; stroke: #487fa8; stroke-width: 1.2; stroke-linejoin: miter"/>
   </g>
   <g id="patch_15">
    <path d="M 478.656 251.424 
L 513.216 246.24 
L 513.216 287.712 
L 478.656 282.528 
z
" clip-path="url(#p3d12db3f3c)" style="fill: #edf5fb; stroke: #487fa8; stroke-width: 1.2; stroke-linejoin: miter"/>
   </g>
   <g id="line2d_1">
    <path d="M 60.48 61.344 
L 95.04 61.344 
" clip-path="url(#p3d12db3f3c)" style="fill: none; stroke: #8066ab; stroke-width: 1.5; stroke-linecap: round"/>
   </g>
   <g id="line2d_2">
    <path d="M 181.44 61.344 
L 241.92 61.344 
" clip-path="url(#p3d12db3f3c)" style="fill: none; stroke: #8066ab; stroke-width: 1.5; stroke-linecap: round"/>
   </g>
   <g id="line2d_3">
    <path d="M 305.856 60.48 
L 327.024 60.48 
" clip-path="url(#p3d12db3f3c)" style="fill: none; stroke: #aaa4b7; stroke-width: 1.1; stroke-linecap: round"/>
   </g>
   <g id="line2d_4">
    <path d="M 368.496 60.48 
L 389.664 60.48 
" clip-path="url(#p3d12db3f3c)" style="fill: none; stroke: #aaa4b7; stroke-width: 1.1; stroke-linecap: round"/>
   </g>
   <g id="line2d_5">
    <path d="M 312.768 190.944 
L 388.8 177.984 
" clip-path="url(#p3d12db3f3c)" style="fill: none; stroke: #ce8849; stroke-width: 1.1; stroke-linecap: round"/>
   </g>
   <g id="line2d_6">
    <path d="M 312.768 190.944 
L 295.488 173.664 
" clip-path="url(#p3d12db3f3c)" style="fill: none; stroke: #ce8849; stroke-width: 1.1; stroke-linecap: round"/>
   </g>
   <g id="line2d_7">
    <path d="M 312.768 279.072 
L 388.8 266.112 
" clip-path="url(#p3d12db3f3c)" style="fill: none; stroke: #ce8849; stroke-width: 1.1; stroke-linecap: round"/>
   </g>
   <g id="line2d_8">
    <path d="M 312.768 279.072 
L 295.488 261.792 
" clip-path="url(#p3d12db3f3c)" style="fill: none; stroke: #ce8849; stroke-width: 1.1; stroke-linecap: round"/>
   </g>
   <g id="line2d_9">
    <path d="M 347.76 100.224 
L 347.76 121.824 
" clip-path="url(#p3d12db3f3c)" style="fill: none; stroke: #8066ab; stroke-width: 1.5; stroke-linecap: round"/>
   </g>
   <g id="patch_16">
    <path d="M 31.104 190.08 
L 60.48 190.08 
L 60.48 216.864 
L 31.104 216.864 
z
" clip-path="url(#p3d12db3f3c)" style="fill: #edf5fb; stroke: #487fa8; stroke-width: 1.1; stroke-linejoin: miter"/>
   </g>
   <g id="line2d_10">
    <path d="M 36.9792 190.08 
L 36.9792 216.864 
" clip-path="url(#p3d12db3f3c)" style="fill: none; stroke: #487fa8; stroke-width: 0.6; stroke-linecap: round"/>
   </g>
   <g id="line2d_11">
    <path d="M 42.8544 190.08 
L 42.8544 216.864 
" clip-path="url(#p3d12db3f3c)" style="fill: none; stroke: #487fa8; stroke-width: 0.6; stroke-linecap: round"/>
   </g>
   <g id="line2d_12">
    <path d="M 48.7296 190.08 
L 48.7296 216.864 
" clip-path="url(#p3d12db3f3c)" style="fill: none; stroke: #487fa8; stroke-width: 0.6; stroke-linecap: round"/>
   </g>
   <g id="line2d_13">
    <path d="M 54.6048 190.08 
L 54.6048 216.864 
" clip-path="url(#p3d12db3f3c)" style="fill: none; stroke: #487fa8; stroke-width: 0.6; stroke-linecap: round"/>
   </g>
   <g id="line2d_14">
    <path d="M 31.104 196.776 
L 60.48 196.776 
" clip-path="url(#p3d12db3f3c)" style="fill: none; stroke: #487fa8; stroke-width: 0.6; stroke-linecap: round"/>
   </g>
   <g id="line2d_15">
    <path d="M 31.104 203.472 
L 60.48 203.472 
" clip-path="url(#p3d12db3f3c)" style="fill: none; stroke: #487fa8; stroke-width: 0.6; stroke-linecap: round"/>
   </g>
   <g id="line2d_16">
    <path d="M 31.104 210.168 
L 60.48 210.168 
" clip-path="url(#p3d12db3f3c)" style="fill: none; stroke: #487fa8; stroke-width: 0.6; stroke-linecap: round"/>
   </g>
   <g id="patch_17">
    <path d="M 28.944 192.24 
L 58.32 192.24 
L 58.32 219.024 
L 28.944 219.024 
z
" clip-path="url(#p3d12db3f3c)" style="fill: #edf5fb; stroke: #487fa8; stroke-width: 1.1; stroke-linejoin: miter"/>
   </g>
   <g id="line2d_17">
    <path d="M 34.8192 192.24 
L 34.8192 219.024 
" clip-path="url(#p3d12db3f3c)" style="fill: none; stroke: #487fa8; stroke-width: 0.6; stroke-linecap: round"/>
   </g>
   <g id="line2d_18">
    <path d="M 40.6944 192.24 
L 40.6944 219.024 
" clip-path="url(#p3d12db3f3c)" style="fill: none; stroke: #487fa8; stroke-width: 0.6; stroke-linecap: round"/>
   </g>
   <g id="line2d_19">
    <path d="M 46.5696 192.24 
L 46.5696 219.024 
" clip-path="url(#p3d12db3f3c)" style="fill: none; stroke: #487fa8; stroke-width: 0.6; stroke-linecap: round"/>
   </g>
   <g id="line2d_20">
    <path d="M 52.4448 192.24 
L 52.4448 219.024 
" clip-path="url(#p3d12db3f3c)" style="fill: none; stroke: #487fa8; stroke-width: 0.6; stroke-linecap: round"/>
   </g>
   <g id="line2d_21">
    <path d="M 28.944 198.936 
L 58.32 198.936 
" clip-path="url(#p3d12db3f3c)" style="fill: none; stroke: #487fa8; stroke-width: 0.6; stroke-linecap: round"/>
   </g>
   <g id="line2d_22">
    <path d="M 28.944 205.632 
L 58.32 205.632 
" clip-path="url(#p3d12db3f3c)" style="fill: none; stroke: #487fa8; stroke-width: 0.6; stroke-linecap: round"/>
   </g>
   <g id="line2d_23">
    <path d="M 28.944 212.328 
L 58.32 212.328 
" clip-path="url(#p3d12db3f3c)" style="fill: none; stroke: #487fa8; stroke-width: 0.6; stroke-linecap: round"/>
   </g>
   <g id="patch_18">
    <path d="M 26.784 194.4 
L 56.16 194.4 
L 56.16 221.184 
L 26.784 221.184 
z
" clip-path="url(#p3d12db3f3c)" style="fill: #edf5fb; stroke: #487fa8; stroke-width: 1.1; stroke-linejoin: miter"/>
   </g>
   <g id="line2d_24">
    <path d="M 32.6592 194.4 
L 32.6592 221.184 
" clip-path="url(#p3d12db3f3c)" style="fill: none; stroke: #487fa8; stroke-width: 0.6; stroke-linecap: round"/>
   </g>
   <g id="line2d_25">
    <path d="M 38.5344 194.4 
L 38.5344 221.184 
" clip-path="url(#p3d12db3f3c)" style="fill: none; stroke: #487fa8; stroke-width: 0.6; stroke-linecap: round"/>
   </g>
   <g id="line2d_26">
    <path d="M 44.4096 194.4 
L 44.4096 221.184 
" clip-path="url(#p3d12db3f3c)" style="fill: none; stroke: #487fa8; stroke-width: 0.6; stroke-linecap: round"/>
   </g>
   <g id="line2d_27">
    <path d="M 50.2848 194.4 
L 50.2848 221.184 
" clip-path="url(#p3d12db3f3c)" style="fill: none; stroke: #487fa8; stroke-width: 0.6; stroke-linecap: round"/>
   </g>
   <g id="line2d_28">
    <path d="M 26.784 201.096 
L 56.16 201.096 
" clip-path="url(#p3d12db3f3c)" style="fill: none; stroke: #487fa8; stroke-width: 0.6; stroke-linecap: round"/>
   </g>
   <g id="line2d_29">
    <path d="M 26.784 207.792 
L 56.16 207.792 
" clip-path="url(#p3d12db3f3c)" style="fill: none; stroke: #487fa8; stroke-width: 0.6; stroke-linecap: round"/>
   </g>
   <g id="line2d_30">
    <path d="M 26.784 214.488 
L 56.16 214.488 
" clip-path="url(#p3d12db3f3c)" style="fill: none; stroke: #487fa8; stroke-width: 0.6; stroke-linecap: round"/>
   </g>
   <g id="line2d_31">
    <path d="M 114.048 207.36 
L 209.088 207.36 
L 209.088 181.44 
L 241.92 181.44 
" clip-path="url(#p3d12db3f3c)" style="fill: none; stroke: #487fa8; stroke-width: 1.5; stroke-linecap: round"/>
   </g>
   <g id="line2d_32">
    <path d="M 209.088 207.36 
L 209.088 267.84 
L 241.92 267.84 
" clip-path="url(#p3d12db3f3c)" style="fill: none; stroke: #487fa8; stroke-width: 1.5; stroke-linecap: round"/>
   </g>
   <g id="line2d_33">
    <path d="M 429.408 178.848 
L 478.656 178.848 
" clip-path="url(#p3d12db3f3c)" style="fill: none; stroke: #233344; stroke-width: 1.5; stroke-linecap: round"/>
   </g>
   <g id="line2d_34">
    <path d="M 513.216 178.848 
L 581.472 178.848 
" clip-path="url(#p3d12db3f3c)" style="fill: none; stroke: #233344; stroke-width: 1.5; stroke-linecap: round"/>
   </g>
   <g id="line2d_35">
    <path d="M 429.408 266.976 
L 478.656 266.976 
" clip-path="url(#p3d12db3f3c)" style="fill: none; stroke: #233344; stroke-width: 1.5; stroke-linecap: round"/>
   </g>
   <g id="line2d_36">
    <path d="M 513.216 266.976 
L 581.472 266.976 
" clip-path="url(#p3d12db3f3c)" style="fill: none; stroke: #233344; stroke-width: 1.5; stroke-linecap: round"/>
   </g>
   <g id="patch_19">
    <path d="M 581.472 162 
L 621.216 162 
L 621.216 195.696 
L 581.472 195.696 
z
" clip-path="url(#p3d12db3f3c)" style="fill: #eef7f3; stroke: #4e8f7e; stroke-width: 1.1; stroke-linejoin: miter"/>
   </g>
   <g id="line2d_37">
    <path d="M 589.4208 162 
L 589.4208 195.696 
" clip-path="url(#p3d12db3f3c)" style="fill: none; stroke: #4e8f7e; stroke-width: 0.6; stroke-linecap: round"/>
   </g>
   <g id="line2d_38">
    <path d="M 597.3696 162 
L 597.3696 195.696 
" clip-path="url(#p3d12db3f3c)" style="fill: none; stroke: #4e8f7e; stroke-width: 0.6; stroke-linecap: round"/>
   </g>
   <g id="line2d_39">
    <path d="M 605.3184 162 
L 605.3184 195.696 
" clip-path="url(#p3d12db3f3c)" style="fill: none; stroke: #4e8f7e; stroke-width: 0.6; stroke-linecap: round"/>
   </g>
   <g id="line2d_40">
    <path d="M 613.2672 162 
L 613.2672 195.696 
" clip-path="url(#p3d12db3f3c)" style="fill: none; stroke: #4e8f7e; stroke-width: 0.6; stroke-linecap: round"/>
   </g>
   <g id="line2d_41">
    <path d="M 581.472 170.424 
L 621.216 170.424 
" clip-path="url(#p3d12db3f3c)" style="fill: none; stroke: #4e8f7e; stroke-width: 0.6; stroke-linecap: round"/>
   </g>
   <g id="line2d_42">
    <path d="M 581.472 178.848 
L 621.216 178.848 
" clip-path="url(#p3d12db3f3c)" style="fill: none; stroke: #4e8f7e; stroke-width: 0.6; stroke-linecap: round"/>
   </g>
   <g id="line2d_43">
    <path d="M 581.472 187.272 
L 621.216 187.272 
" clip-path="url(#p3d12db3f3c)" style="fill: none; stroke: #4e8f7e; stroke-width: 0.6; stroke-linecap: round"/>
   </g>
   <g id="patch_20">
    <path d="M 581.472 250.128 
L 621.216 250.128 
L 621.216 283.824 
L 581.472 283.824 
z
" clip-path="url(#p3d12db3f3c)" style="fill: #eef7f3; stroke: #4e8f7e; stroke-width: 1.1; stroke-linejoin: miter"/>
   </g>
   <g id="line2d_44">
    <path d="M 589.4208 250.128 
L 589.4208 283.824 
" clip-path="url(#p3d12db3f3c)" style="fill: none; stroke: #4e8f7e; stroke-width: 0.6; stroke-linecap: round"/>
   </g>
   <g id="line2d_45">
    <path d="M 597.3696 250.128 
L 597.3696 283.824 
" clip-path="url(#p3d12db3f3c)" style="fill: none; stroke: #4e8f7e; stroke-width: 0.6; stroke-linecap: round"/>
   </g>
   <g id="line2d_46">
    <path d="M 605.3184 250.128 
L 605.3184 283.824 
" clip-path="url(#p3d12db3f3c)" style="fill: none; stroke: #4e8f7e; stroke-width: 0.6; stroke-linecap: round"/>
   </g>
   <g id="line2d_47">
    <path d="M 613.2672 250.128 
L 613.2672 283.824 
" clip-path="url(#p3d12db3f3c)" style="fill: none; stroke: #4e8f7e; stroke-width: 0.6; stroke-linecap: round"/>
   </g>
   <g id="line2d_48">
    <path d="M 581.472 258.552 
L 621.216 258.552 
" clip-path="url(#p3d12db3f3c)" style="fill: none; stroke: #4e8f7e; stroke-width: 0.6; stroke-linecap: round"/>
   </g>
   <g id="line2d_49">
    <path d="M 581.472 266.976 
L 621.216 266.976 
" clip-path="url(#p3d12db3f3c)" style="fill: none; stroke: #4e8f7e; stroke-width: 0.6; stroke-linecap: round"/>
   </g>
   <g id="line2d_50">
    <path d="M 581.472 275.4 
L 621.216 275.4 
" clip-path="url(#p3d12db3f3c)" style="fill: none; stroke: #4e8f7e; stroke-width: 0.6; stroke-linecap: round"/>
   </g>
   <g id="line2d_51">
    <path d="M 621.216 178.848 
L 665.28 178.848 
L 665.28 203.904 
L 692.064 203.904 
" clip-path="url(#p3d12db3f3c)" style="fill: none; stroke: #233344; stroke-width: 1.5; stroke-linecap: round"/>
   </g>
   <g id="line2d_52">
    <path d="M 621.216 266.976 
L 665.28 266.976 
L 665.28 229.824 
L 692.064 229.824 
" clip-path="url(#p3d12db3f3c)" style="fill: none; stroke: #233344; stroke-width: 1.5; stroke-linecap: round"/>
   </g>
   <g id="line2d_53">
    <path d="M 769.824 216.864 
L 803.52 216.864 
" clip-path="url(#p3d12db3f3c)" style="fill: none; stroke: #233344; stroke-width: 1.5; stroke-linecap: round"/>
   </g>
   <g id="patch_21">
    <path d="M 803.52 202.176 
L 831.168 202.176 
L 831.168 231.552 
L 803.52 231.552 
z
" clip-path="url(#p3d12db3f3c)" style="fill: #eef7f3; stroke: #4e8f7e; stroke-width: 1.1; stroke-linejoin: miter"/>
   </g>
   <g id="line2d_54">
    <path d="M 809.0496 202.176 
L 809.0496 231.552 
" clip-path="url(#p3d12db3f3c)" style="fill: none; stroke: #4e8f7e; stroke-width: 0.6; stroke-linecap: round"/>
   </g>
   <g id="line2d_55">
    <path d="M 814.5792 202.176 
L 814.5792 231.552 
" clip-path="url(#p3d12db3f3c)" style="fill: none; stroke: #4e8f7e; stroke-width: 0.6; stroke-linecap: round"/>
   </g>
   <g id="line2d_56">
    <path d="M 820.1088 202.176 
L 820.1088 231.552 
" clip-path="url(#p3d12db3f3c)" style="fill: none; stroke: #4e8f7e; stroke-width: 0.6; stroke-linecap: round"/>
   </g>
   <g id="line2d_57">
    <path d="M 825.6384 202.176 
L 825.6384 231.552 
" clip-path="url(#p3d12db3f3c)" style="fill: none; stroke: #4e8f7e; stroke-width: 0.6; stroke-linecap: round"/>
   </g>
   <g id="line2d_58">
    <path d="M 803.52 209.52 
L 831.168 209.52 
" clip-path="url(#p3d12db3f3c)" style="fill: none; stroke: #4e8f7e; stroke-width: 0.6; stroke-linecap: round"/>
   </g>
   <g id="line2d_59">
    <path d="M 803.52 216.864 
L 831.168 216.864 
" clip-path="url(#p3d12db3f3c)" style="fill: none; stroke: #4e8f7e; stroke-width: 0.6; stroke-linecap: round"/>
   </g>
   <g id="line2d_60">
    <path d="M 803.52 224.208 
L 831.168 224.208 
" clip-path="url(#p3d12db3f3c)" style="fill: none; stroke: #4e8f7e; stroke-width: 0.6; stroke-linecap: round"/>
   </g>
   <g id="line2d_61">
    <path d="M 635.04 178.848 
L 635.04 121.824 
L 817.344 121.824 
L 817.344 202.176 
" clip-path="url(#p3d12db3f3c)" style="fill: none; stroke: #4e8f7e; stroke-width: 1.25; stroke-linecap: round"/>
   </g>
   <g id="line2d_62">
    <path d="M 164.16 207.36 
L 164.16 345.6 
L 272.16 345.6 
" clip-path="url(#p3d12db3f3c)" style="fill: none; stroke: #487fa8; stroke-width: 1.5; stroke-linecap: round"/>
   </g>
   <g id="line2d_63">
    <path d="M 419.04 345.6 
L 600.48 345.6 
" clip-path="url(#p3d12db3f3c)" style="fill: none; stroke: #487fa8; stroke-width: 1.5; stroke-linecap: round"/>
   </g>
   <g id="line2d_64">
    <path d="M 786.24 345.6 
L 840.672 345.6 
L 840.672 304.992 
L 730.944 304.992 
L 730.944 246.24 
" clip-path="url(#p3d12db3f3c)" style="fill: none; stroke: #8066ab; stroke-width: 1.5; stroke-linecap: round"/>
   </g>
   <g id="patch_22">
    <path d="M 88.128 61.344 
Q 91.584 61.344 93.362949 61.344 
" clip-path="url(#p3d12db3f3c)" style="fill: none; stroke: #8066ab; stroke-width: 1.5; stroke-linecap: round"/>
    <path d="M 87.762949 58.544 
L 93.362949 61.344 
L 87.762949 64.144 
z
" clip-path="url(#p3d12db3f3c)" style="fill: #8066ab; stroke: #8066ab; stroke-width: 1.5; stroke-linecap: round"/>
   </g>
   <g id="patch_23">
    <path d="M 235.008 61.344 
Q 238.464 61.344 240.242949 61.344 
" clip-path="url(#p3d12db3f3c)" style="fill: none; stroke: #8066ab; stroke-width: 1.5; stroke-linecap: round"/>
    <path d="M 234.642949 58.544 
L 240.242949 61.344 
L 234.642949 64.144 
z
" clip-path="url(#p3d12db3f3c)" style="fill: #8066ab; stroke: #8066ab; stroke-width: 1.5; stroke-linecap: round"/>
   </g>
   <g id="patch_24">
    <path d="M 381.986277 179.14543 
Q 385.393138 178.564715 387.587649 178.190651 
" clip-path="url(#p3d12db3f3c)" style="fill: none; stroke: #ce8849; stroke-width: 1.1; stroke-linecap: round"/>
    <path d="M 381.596784 176.371435 
L 387.587649 178.190651 
L 382.537758 181.891813 
z
" clip-path="url(#p3d12db3f3c)" style="fill: #ce8849; stroke: #ce8849; stroke-width: 1.1; stroke-linecap: round"/>
   </g>
   <g id="patch_25">
    <path d="M 300.375522 178.551522 
Q 297.931761 176.107761 296.357626 174.533626 
" clip-path="url(#p3d12db3f3c)" style="fill: none; stroke: #ce8849; stroke-width: 1.1; stroke-linecap: round"/>
    <path d="M 298.337525 180.473323 
L 296.357626 174.533626 
L 302.297323 176.513525 
z
" clip-path="url(#p3d12db3f3c)" style="fill: #ce8849; stroke: #ce8849; stroke-width: 1.1; stroke-linecap: round"/>
   </g>
   <g id="patch_26">
    <path d="M 381.986277 267.27343 
Q 385.393138 266.692715 387.587649 266.318651 
" clip-path="url(#p3d12db3f3c)" style="fill: none; stroke: #ce8849; stroke-width: 1.1; stroke-linecap: round"/>
    <path d="M 381.596784 264.499435 
L 387.587649 266.318651 
L 382.537758 270.019813 
z
" clip-path="url(#p3d12db3f3c)" style="fill: #ce8849; stroke: #ce8849; stroke-width: 1.1; stroke-linecap: round"/>
   </g>
   <g id="patch_27">
    <path d="M 300.375522 266.679522 
Q 297.931761 264.235761 296.357626 262.661626 
" clip-path="url(#p3d12db3f3c)" style="fill: none; stroke: #ce8849; stroke-width: 1.1; stroke-linecap: round"/>
    <path d="M 298.337525 268.601323 
L 296.357626 262.661626 
L 302.297323 264.641525 
z
" clip-path="url(#p3d12db3f3c)" style="fill: #ce8849; stroke: #ce8849; stroke-width: 1.1; stroke-linecap: round"/>
   </g>
   <g id="patch_28">
    <path d="M 347.76 114.912 
Q 347.76 118.368 347.76 120.146949 
" clip-path="url(#p3d12db3f3c)" style="fill: none; stroke: #8066ab; stroke-width: 1.5; stroke-linecap: round"/>
    <path d="M 350.56 114.546949 
L 347.76 120.146949 
L 344.96 114.546949 
z
" clip-path="url(#p3d12db3f3c)" style="fill: #8066ab; stroke: #8066ab; stroke-width: 1.5; stroke-linecap: round"/>
   </g>
   <g id="patch_29">
    <path d="M 235.008 181.44 
Q 238.464 181.44 240.242949 181.44 
" clip-path="url(#p3d12db3f3c)" style="fill: none; stroke: #487fa8; stroke-width: 1.5; stroke-linecap: round"/>
    <path d="M 234.642949 178.64 
L 240.242949 181.44 
L 234.642949 184.24 
z
" clip-path="url(#p3d12db3f3c)" style="fill: #487fa8; stroke: #487fa8; stroke-width: 1.5; stroke-linecap: round"/>
   </g>
   <g id="patch_30">
    <path d="M 235.008 267.84 
Q 238.464 267.84 240.242949 267.84 
" clip-path="url(#p3d12db3f3c)" style="fill: none; stroke: #487fa8; stroke-width: 1.5; stroke-linecap: round"/>
    <path d="M 234.642949 265.04 
L 240.242949 267.84 
L 234.642949 270.64 
z
" clip-path="url(#p3d12db3f3c)" style="fill: #487fa8; stroke: #487fa8; stroke-width: 1.5; stroke-linecap: round"/>
   </g>
   <g id="patch_31">
    <path d="M 471.744 178.848 
Q 475.2 178.848 476.978949 178.848 
" clip-path="url(#p3d12db3f3c)" style="fill: none; stroke: #233344; stroke-width: 1.5; stroke-linecap: round"/>
    <path d="M 471.378949 176.048 
L 476.978949 178.848 
L 471.378949 181.648 
z
" clip-path="url(#p3d12db3f3c)" style="fill: #233344; stroke: #233344; stroke-width: 1.5; stroke-linecap: round"/>
   </g>
   <g id="patch_32">
    <path d="M 574.56 178.848 
Q 578.016 178.848 579.794949 178.848 
" clip-path="url(#p3d12db3f3c)" style="fill: none; stroke: #233344; stroke-width: 1.5; stroke-linecap: round"/>
    <path d="M 574.194949 176.048 
L 579.794949 178.848 
L 574.194949 181.648 
z
" clip-path="url(#p3d12db3f3c)" style="fill: #233344; stroke: #233344; stroke-width: 1.5; stroke-linecap: round"/>
   </g>
   <g id="patch_33">
    <path d="M 471.744 266.976 
Q 475.2 266.976 476.978949 266.976 
" clip-path="url(#p3d12db3f3c)" style="fill: none; stroke: #233344; stroke-width: 1.5; stroke-linecap: round"/>
    <path d="M 471.378949 264.176 
L 476.978949 266.976 
L 471.378949 269.776 
z
" clip-path="url(#p3d12db3f3c)" style="fill: #233344; stroke: #233344; stroke-width: 1.5; stroke-linecap: round"/>
   </g>
   <g id="patch_34">
    <path d="M 574.56 266.976 
Q 578.016 266.976 579.794949 266.976 
" clip-path="url(#p3d12db3f3c)" style="fill: none; stroke: #233344; stroke-width: 1.5; stroke-linecap: round"/>
    <path d="M 574.194949 264.176 
L 579.794949 266.976 
L 574.194949 269.776 
z
" clip-path="url(#p3d12db3f3c)" style="fill: #233344; stroke: #233344; stroke-width: 1.5; stroke-linecap: round"/>
   </g>
   <g id="patch_35">
    <path d="M 685.152 203.904 
Q 688.608 203.904 690.386949 203.904 
" clip-path="url(#p3d12db3f3c)" style="fill: none; stroke: #233344; stroke-width: 1.5; stroke-linecap: round"/>
    <path d="M 684.786949 201.104 
L 690.386949 203.904 
L 684.786949 206.704 
z
" clip-path="url(#p3d12db3f3c)" style="fill: #233344; stroke: #233344; stroke-width: 1.5; stroke-linecap: round"/>
   </g>
   <g id="patch_36">
    <path d="M 685.152 229.824 
Q 688.608 229.824 690.386949 229.824 
" clip-path="url(#p3d12db3f3c)" style="fill: none; stroke: #233344; stroke-width: 1.5; stroke-linecap: round"/>
    <path d="M 684.786949 227.024 
L 690.386949 229.824 
L 684.786949 232.624 
z
" clip-path="url(#p3d12db3f3c)" style="fill: #233344; stroke: #233344; stroke-width: 1.5; stroke-linecap: round"/>
   </g>
   <g id="patch_37">
    <path d="M 796.608 216.864 
Q 800.064 216.864 801.842949 216.864 
" clip-path="url(#p3d12db3f3c)" style="fill: none; stroke: #233344; stroke-width: 1.5; stroke-linecap: round"/>
    <path d="M 796.242949 214.064 
L 801.842949 216.864 
L 796.242949 219.664 
z
" clip-path="url(#p3d12db3f3c)" style="fill: #233344; stroke: #233344; stroke-width: 1.5; stroke-linecap: round"/>
   </g>
   <g id="patch_38">
    <path d="M 817.344 195.264 
Q 817.344 198.72 817.344 200.778458 
" clip-path="url(#p3d12db3f3c)" style="fill: none; stroke: #4e8f7e; stroke-width: 1.25; stroke-linecap: round"/>
    <path d="M 820.144 195.178458 
L 817.344 200.778458 
L 814.544 195.178458 
z
" clip-path="url(#p3d12db3f3c)" style="fill: #4e8f7e; stroke: #4e8f7e; stroke-width: 1.25; stroke-linecap: round"/>
   </g>
   <g id="patch_39">
    <path d="M 265.248 345.6 
Q 268.704 345.6 270.482949 345.6 
" clip-path="url(#p3d12db3f3c)" style="fill: none; stroke: #487fa8; stroke-width: 1.5; stroke-linecap: round"/>
    <path d="M 264.882949 342.8 
L 270.482949 345.6 
L 264.882949 348.4 
z
" clip-path="url(#p3d12db3f3c)" style="fill: #487fa8; stroke: #487fa8; stroke-width: 1.5; stroke-linecap: round"/>
   </g>
   <g id="patch_40">
    <path d="M 593.568 345.6 
Q 597.024 345.6 598.802949 345.6 
" clip-path="url(#p3d12db3f3c)" style="fill: none; stroke: #487fa8; stroke-width: 1.5; stroke-linecap: round"/>
    <path d="M 593.202949 342.8 
L 598.802949 345.6 
L 593.202949 348.4 
z
" clip-path="url(#p3d12db3f3c)" style="fill: #487fa8; stroke: #487fa8; stroke-width: 1.5; stroke-linecap: round"/>
   </g>
   <g id="patch_41">
    <path d="M 730.944 253.152 
Q 730.944 249.696 730.944 247.917051 
" clip-path="url(#p3d12db3f3c)" style="fill: none; stroke: #8066ab; stroke-width: 1.5; stroke-linecap: round"/>
    <path d="M 728.144 253.517051 
L 730.944 247.917051 
L 733.744 253.517051 
z
" clip-path="url(#p3d12db3f3c)" style="fill: #8066ab; stroke: #8066ab; stroke-width: 1.5; stroke-linecap: round"/>
   </g>
   <g id="line2d_65">
    <path d="M 358.92288 177.12 
L 359.162356 177.445013 
L 359.186526 177.81556 
L 358.959512 178.205508 
L 358.463472 178.584375 
L 357.701304 178.919521 
L 356.317219 179.242853 
L 354.624415 179.36378 
L 352.798351 179.234039 
L 351.469909 178.958617 
L 350.284707 178.533282 
L 349.338335 177.972423 
L 348.717451 177.301172 
L 348.520243 176.809186 
L 348.515593 176.295805 
L 348.714427 175.774647 
L 349.122159 175.260231 
L 349.73829 174.767576 
L 351.037038 174.102313 
L 352.739958 173.568744 
L 354.768906 173.210452 
L 357.019356 173.062519 
L 359.365751 173.148729 
L 361.668503 173.479366 
L 363.782272 174.049794 
L 365.565018 174.839941 
L 366.504891 175.472044 
L 367.206264 176.17269 
L 367.641084 176.925674 
L 367.787602 177.712768 
L 367.63119 178.514164 
L 367.16498 179.308972 
L 366.390298 180.075767 
L 365.316895 180.793155 
L 363.962937 181.440372 
L 362.35477 181.997869 
L 360.526445 182.447883 
L 358.519021 182.774982 
L 356.379656 182.966548 
L 354.160499 183.013208 
L 351.917424 182.909179 
L 349.708621 182.65253 
L 347.593089 182.245341 
L 345.629066 181.693759 
L 343.872444 181.007947 
L 342.375196 180.201915 
L 341.183885 179.293254 
L 340.338264 178.302756 
L 339.870041 177.253942 
L 339.80182 176.172506 
L 340.146266 175.085687 
L 340.905517 174.02158 
L 342.070859 173.008411 
L 343.622695 172.073795 
L 345.530791 171.243984 
L 347.754825 170.543141 
L 350.245207 169.992651 
L 352.944171 169.61049 
L 355.787109 169.410671 
L 358.704112 169.402781 
L 361.62169 169.591633 
L 364.464623 169.977022 
L 367.157901 170.553625 
L 369.628691 171.311023 
L 371.808302 172.233866 
L 373.634068 173.302163 
L 375.051121 174.491707 
L 376.013993 175.77462 
L 376.313818 176.441531 
L 376.488 177.12 
L 376.488 177.12 
" clip-path="url(#p3d12db3f3c)" style="fill: none; stroke: #ce8849; stroke-width: 1.9; stroke-linecap: square"/>
   </g>
   <g id="line2d_66">
    <path d="M 378.432 265.248 
L 378.274327 266.26988 
L 377.803523 267.277415 
L 377.026195 268.256462 
L 375.953257 269.193277 
L 374.599769 270.074708 
L 372.984733 270.888383 
L 371.130818 271.62288 
L 368.332764 272.461399 
L 365.226415 273.120064 
L 361.889222 273.582451 
L 358.404393 273.837033 
L 354.858817 273.877461 
L 351.340896 273.702728 
L 347.938345 273.31719 
L 344.736 272.730459 
L 341.813707 271.957166 
L 339.244328 271.016591 
L 337.587809 270.215347 
L 336.189307 269.344373 
L 335.068456 268.415894 
L 334.240988 267.442945 
L 333.718519 266.439184 
L 333.508385 265.418702 
L 333.613534 264.395823 
L 334.032491 263.384907 
L 334.759375 262.400144 
L 335.783981 261.45536 
L 337.091926 260.563815 
L 338.66485 259.738026 
L 340.480673 258.989586 
L 343.235107 258.129968 
L 346.307015 257.447827 
L 349.619804 256.96017 
L 353.090876 256.679157 
L 356.633683 256.611794 
L 360.159893 256.759761 
L 363.581585 257.119369 
L 366.813444 257.68165 
L 369.77489 258.432586 
L 372.392084 259.353454 
L 374.089438 260.141953 
L 375.532407 261.00213 
L 376.700735 261.92191 
L 377.57802 262.888381 
L 378.151948 263.887976 
L 378.414463 264.906663 
L 378.432 265.248 
L 378.432 265.248 
" clip-path="url(#p3d12db3f3c)" style="fill: none; stroke: #ce8849; stroke-width: 1.9; stroke-linecap: square"/>
   </g>
   <g id="patch_42">
    <path d="M 209.088 206.1504 
C 209.40879 206.1504 209.716484 206.277851 209.943316 206.504684 
C 210.170149 206.731516 210.2976 207.03921 210.2976 207.36 
C 210.2976 207.68079 210.170149 207.988484 209.943316 208.215316 
C 209.716484 208.442149 209.40879 208.5696 209.088 208.5696 
C 208.76721 208.5696 208.459516 208.442149 208.232684 208.215316 
C 208.005851 207.988484 207.8784 207.68079 207.8784 207.36 
C 207.8784 207.03921 208.005851 206.731516 208.232684 206.504684 
C 208.459516 206.277851 208.76721 206.1504 209.088 206.1504 
z
" clip-path="url(#p3d12db3f3c)" style="fill: #487fa8; stroke: #487fa8; stroke-linejoin: miter"/>
   </g>
   <g id="patch_43">
    <path d="M 635.04 177.6384 
C 635.36079 177.6384 635.668484 177.765851 635.895316 177.992684 
C 636.122149 178.219516 636.2496 178.52721 636.2496 178.848 
C 636.2496 179.16879 636.122149 179.476484 635.895316 179.703316 
C 635.668484 179.930149 635.36079 180.0576 635.04 180.0576 
C 634.71921 180.0576 634.411516 179.930149 634.184684 179.703316 
C 633.957851 179.476484 633.8304 179.16879 633.8304 178.848 
C 633.8304 178.52721 633.957851 178.219516 634.184684 177.992684 
C 634.411516 177.765851 634.71921 177.6384 635.04 177.6384 
z
" clip-path="url(#p3d12db3f3c)" style="fill: #233344; stroke: #233344; stroke-linejoin: miter"/>
   </g>
   <g id="patch_44">
    <path d="M 164.16 206.1504 
C 164.48079 206.1504 164.788484 206.277851 165.015316 206.504684 
C 165.242149 206.731516 165.3696 207.03921 165.3696 207.36 
C 165.3696 207.68079 165.242149 207.988484 165.015316 208.215316 
C 164.788484 208.442149 164.48079 208.5696 164.16 208.5696 
C 163.83921 208.5696 163.531516 208.442149 163.304684 208.215316 
C 163.077851 207.988484 162.9504 207.68079 162.9504 207.36 
C 162.9504 207.03921 163.077851 206.731516 163.304684 206.504684 
C 163.531516 206.277851 163.83921 206.1504 164.16 206.1504 
z
" clip-path="url(#p3d12db3f3c)" style="fill: #487fa8; stroke: #487fa8; stroke-linejoin: miter"/>
   </g>
   <g id="text_1">
    <text style="fill: #8066ab; font: 700 20px 'DejaVu Sans'; text-anchor: middle" x="347.76" y="20.992625" transform="rotate(-0 347.76 20.992625)">Regime routing</text>
   </g>
   <g id="text_2">
    <!-- $\mu$ -->
    <g style="fill: #8066ab" transform="translate(30.93 69.561188)">
     <text>
      <tspan style="font: italic 30px 'STIXGeneral'" x="0" y="-0.15625">μ</tspan>
     </text>
    </g>
   </g>
   <g id="text_3">
    <text style="fill: #8066ab; font: 700 22px 'DejaVu Sans'; text-anchor: middle" x="138.24" y="67.414625" transform="rotate(-0 138.24 67.414625)">E2</text>
   </g>
   <g id="text_4">
    <!-- $\pi$ -->
    <g style="fill: #8066ab" transform="translate(205.56 51.5505)">
     <text>
      <tspan style="font: italic 24px 'STIXGeneral'" x="0" y="-0.734375">π</tspan>
     </text>
    </g>
   </g>
   <g id="text_5">
    <!-- $S$ -->
    <g style="fill: #657585" transform="translate(279.37 66.826563)">
     <text>
      <tspan style="font: italic 23px 'STIXGeneral'" x="0" y="-0.65625">S</tspan>
     </text>
    </g>
   </g>
   <g id="text_6">
    <!-- $H$ -->
    <g style="fill: #ce8849" transform="translate(339.365 66.826563)">
     <text>
      <tspan style="font: italic 23px 'STIXGeneral'" x="0" y="-0.984375">H</tspan>
     </text>
    </g>
   </g>
   <g id="text_7">
    <!-- $P$ -->
    <g style="fill: #ce8849" transform="translate(403.27 66.826563)">
     <text>
      <tspan style="font: italic 23px 'STIXGeneral'" x="0" y="-0.984375">P</tspan>
     </text>
    </g>
   </g>
   <g id="text_8">
    <text style="fill: #657585; font: 18.5px 'DejaVu Sans'" transform="translate(88.045859 131.961723)">Top-1 or</text>
    <text style="fill: #657585; font: 18.5px 'DejaVu Sans'" transform="translate(57.463047 151.271965)">adjacent Top-2</text>
   </g>
   <g id="text_9">
    <text style="fill: #657585; font: 18.5px 'DejaVu Sans'; text-anchor: middle" x="125.28" y="172.720844" transform="rotate(-0 125.28 172.720844)">H-P shown</text>
   </g>
   <g id="text_10">
    <text style="fill: #ce8849; font: 700 18.5px 'DejaVu Sans'; text-anchor: middle" x="347.328" y="143.344844" transform="rotate(-0 347.328 143.344844)">Independent charts</text>
   </g>
   <g id="text_11">
    <!-- $H$ -->
    <g style="fill: #ce8849" transform="translate(263.899 185.746438)">
     <text>
      <tspan style="font: italic 25px 'STIXGeneral'" x="0" y="-0.671875">H</tspan>
     </text>
    </g>
   </g>
   <g id="text_12">
    <!-- $P$ -->
    <g style="fill: #ce8849" transform="translate(265.274 273.874437)">
     <text>
      <tspan style="font: italic 25px 'STIXGeneral'" x="0" y="-0.671875">P</tspan>
     </text>
    </g>
   </g>
   <g id="text_13">
    <text style="fill: #ce8849; font: 700 19px 'DejaVu Sans'; text-anchor: middle" x="347.76" y="315.418813" transform="rotate(-0 347.76 315.418813)">ROM + sparse MoE</text>
   </g>
   <g id="text_14">
    <!-- $\mathcal{H}_n$ -->
    <g style="fill: #487fa8" transform="translate(73.845 214.810313)">
     <text>
      <tspan style="font: italic 27px 'STIXNonUnicode'" x="0" y="-0.078125"></tspan>
      <tspan style="font: italic 18.9px 'STIXGeneral'" x="22.853715" y="3.4937499999999986">n</tspan>
     </text>
    </g>
   </g>
   <g id="text_15">
    <text style="fill: #657585; font: 19px 'DejaVu Sans'; text-anchor: middle" x="69.12" y="255.802813" transform="rotate(-0 69.12 255.802813)">History</text>
   </g>
   <g id="text_16">
    <text style="fill: #487fa8; font: 700 19px 'DejaVu Sans'; text-anchor: middle" x="503.712" y="143.482813" transform="rotate(-0 503.712 143.482813)">Decode</text>
   </g>
   <g id="text_17">
    <!-- $D$ -->
    <g style="fill: #487fa8" transform="translate(488.539 185.746438)">
     <text>
      <tspan style="font: italic 25px 'STIXGeneral'" x="0" y="-0.671875">D</tspan>
     </text>
    </g>
   </g>
   <g id="text_18">
    <!-- $D$ -->
    <g style="fill: #487fa8" transform="translate(488.539 273.874437)">
     <text>
      <tspan style="font: italic 25px 'STIXGeneral'" x="0" y="-0.671875">D</tspan>
     </text>
    </g>
   </g>
   <g id="text_19">
    <text style="fill: #4e8f7e; font: 700 19.5px 'DejaVu Sans'; text-anchor: middle" x="704.16" y="61.464609" transform="rotate(-0 704.16 61.464609)">Common physical space</text>
   </g>
   <g id="text_20">
    <text style="fill: #657585; font: 18.5px 'DejaVu Sans'; text-anchor: middle" x="704.16" y="94.096844" transform="rotate(-0 704.16 94.096844)">Top-1: pass-through</text>
   </g>
   <g id="text_21">
    <!-- $\widehat{q}^{(H)}$ -->
    <g style="fill: #4e8f7e" transform="translate(584.404 215.044)">
     <text>
      <tspan style="font: 19.629911px 'STIXSizeOneSym'" x="15.875" y="-2.4031249999999993">̂</tspan>
      <tspan style="font: italic 22px 'STIXGeneral'" x="0" y="-0.8249999999999993">q</tspan>
      <tspan style="font: 15.4px 'STIXGeneral'" x="11.339609 27.586614" y="-8.587499999999999">()</tspan>
      <tspan style="font: italic 15.4px 'STIXGeneral'" x="16.467812" y="-8.587499999999999">H</tspan>
     </text>
    </g>
   </g>
   <g id="text_22">
    <!-- $\widehat{q}^{(P)}$ -->
    <g style="fill: #4e8f7e" transform="translate(585.284 303.172)">
     <text>
      <tspan style="font: 19.629911px 'STIXSizeOneSym'" x="15.875" y="-2.4031249999999993">̂</tspan>
      <tspan style="font: italic 22px 'STIXGeneral'" x="0" y="-0.8249999999999993">q</tspan>
      <tspan style="font: 15.4px 'STIXGeneral'" x="11.339609 25.877213" y="-8.587499999999999">()</tspan>
      <tspan style="font: italic 15.4px 'STIXGeneral'" x="16.467812" y="-8.587499999999999">P</tspan>
     </text>
    </g>
   </g>
   <g id="text_23">
    <text style="fill: #4e8f7e; font: 700 21px 'DejaVu Sans'; text-anchor: middle" x="730.944" y="213.154688" transform="rotate(-0 730.944 213.154688)">T2-C</text>
   </g>
   <g id="text_24">
    <text style="fill: #657585; font: 18.5px 'DejaVu Sans'; text-anchor: middle" x="730.944" y="238.384844" transform="rotate(-0 730.944 238.384844)">Top-2</text>
   </g>
   <g id="text_25">
    <!-- $\widehat{q}$ -->
    <g style="fill: #4e8f7e" transform="translate(810.844 267.214)">
     <text>
      <tspan style="font: 23.210273px 'STIXSizeOneSym'" x="17.953121" y="-2.203125">̂</tspan>
      <tspan style="font: italic 26px 'STIXGeneral'" x="0" y="-0.34375">q</tspan>
     </text>
    </g>
   </g>
   <g id="text_26">
    <!-- Descriptor $d_n$ -->
    <g style="fill: #487fa8" transform="translate(284.705 350.825)">
     <text>
      <tspan style="font: 19px 'DejaVu Sans'" x="0 14.630371 26.319824 36.21875 46.665039 54.476562 59.755371 71.815918 79.265625 90.890137 98.70166" y="-0.5625">Descriptor </tspan>
      <tspan style="font: italic 19px 'STIXGeneral'" x="104.741211" y="-0.5625">d</tspan>
      <tspan style="font: italic 13.3px 'STIXGeneral'" x="114.241196" y="1.9499999999999993">n</tspan>
     </text>
    </g>
   </g>
   <g id="text_27">
    <!-- $\alpha(\mu,\bar\pi,d_n)$ -->
    <g style="fill: #8066ab" transform="translate(645.96 352.17375)">
     <text>
      <tspan style="font: italic 24px 'STIXGeneral'" x="0 21.239975 43.32955 65.201382" y="-0.609375">αμπd</tspan>
      <tspan style="font: 24px 'STIXGeneral'" x="13.247986 33.863968 55.7358 56.665488 86.659169" y="-0.609375 -0.609375 -0.609375 -0.75 -0.609375">(,,̄)</tspan>
      <tspan style="font: italic 16.8px 'STIXGeneral'" x="77.201367" y="2.5640624999999986">n</tspan>
     </text>
    </g>
   </g>
  </g>
 </g>
 <defs>
  <clipPath id="p3d12db3f3c">
   <rect x="0" y="0" width="864" height="380.16"/>
  </clipPath>
 </defs>
</svg>
