<svg xmlns="http://www.w3.org/2000/svg" width="1200" height="720" viewBox="0 0 1200 720" role="img">
<style>text{font-family:Arial,sans-serif;fill:#1f2d3a}.axis{stroke:#536575;stroke-width:1.4}.grid{stroke:#d8e0e8;stroke-width:1}.line{fill:none;stroke-width:2.4}.dot{stroke:#fff;stroke-width:1.2}</style>
<rect x="0" y="0" width="1200" height="720" fill="#f7f9fb"/>
<text x="85" y="32" font-size="24" font-weight="700">V16 attractor error vs Reynolds number</text>
<line class="axis" x1="85" y1="630" x2="1165" y2="630"/>
<line class="axis" x1="85" y1="55" x2="85" y2="630"/>
<line class="grid" x1="85" y1="630.0" x2="1165" y2="630.0"/>
<text x="18" y="634.0" font-size="12">0.00</text>
<line class="grid" x1="85" y1="515.0" x2="1165" y2="515.0"/>
<text x="18" y="519.0" font-size="12">0.05</text>
<line class="grid" x1="85" y1="400.0" x2="1165" y2="400.0"/>
<text x="18" y="404.0" font-size="12">0.10</text>
<line class="grid" x1="85" y1="285.0" x2="1165" y2="285.0"/>
<text x="18" y="289.0" font-size="12">0.15</text>
<line class="grid" x1="85" y1="170.0" x2="1165" y2="170.0"/>
<text x="18" y="174.0" font-size="12">0.20</text>
<line class="grid" x1="85" y1="55.0" x2="1165" y2="55.0"/>
<text x="18" y="59.0" font-size="12">0.25</text>
<text x="65.0" y="658" font-size="12">70</text>
<text x="281.0" y="658" font-size="12">94</text>
<text x="497.0" y="658" font-size="12">118</text>
<text x="713.0" y="658" font-size="12">142</text>
<text x="929.0" y="658" font-size="12">166</text>
<text x="1145.0" y="658" font-size="12">190</text>
<text x="590.0" y="692" font-size="14">Reynolds number</text>
<text x="18" y="39" font-size="14">relative L2</text>
<polyline class="line" points="85.0,489.4 356.4,563.2 796.4,571.0 1165.0,556.6" stroke="#1f77b4"/>
<circle class="dot" cx="85.0" cy="489.4" r="4" fill="#1f77b4"/>
<circle class="dot" cx="356.4" cy="563.2" r="4" fill="#1f77b4"/>
<circle class="dot" cx="796.4" cy="571.0" r="4" fill="#1f77b4"/>
<circle class="dot" cx="1165.0" cy="556.6" r="4" fill="#1f77b4"/>
<rect x="100" y="62" width="14" height="4" fill="#1f77b4"/>
<text x="122" y="68" font-size="13">one-step a</text>
<polyline class="line" points="85.0,430.6 356.4,555.3 796.4,549.7 1165.0,528.6" stroke="#ff7f0e"/>
<circle class="dot" cx="85.0" cy="430.6" r="4" fill="#ff7f0e"/>
<circle class="dot" cx="356.4" cy="555.3" r="4" fill="#ff7f0e"/>
<circle class="dot" cx="796.4" cy="549.7" r="4" fill="#ff7f0e"/>
<circle class="dot" cx="1165.0" cy="528.6" r="4" fill="#ff7f0e"/>
<rect x="320" y="62" width="14" height="4" fill="#ff7f0e"/>
<text x="342" y="68" font-size="13">one-step b</text>
<polyline class="line" points="85.0,239.3 356.4,432.5 796.4,507.4 1165.0,413.0" stroke="#2ca02c"/>
<circle class="dot" cx="85.0" cy="239.3" r="4" fill="#2ca02c"/>
<circle class="dot" cx="356.4" cy="432.5" r="4" fill="#2ca02c"/>
<circle class="dot" cx="796.4" cy="507.4" r="4" fill="#2ca02c"/>
<circle class="dot" cx="1165.0" cy="413.0" r="4" fill="#2ca02c"/>
<rect x="540" y="62" width="14" height="4" fill="#2ca02c"/>
<text x="562" y="68" font-size="13">rollout a</text>
<polyline class="line" points="85.0,124.0 356.4,401.3 796.4,476.4 1165.0,354.1" stroke="#d62728"/>
<circle class="dot" cx="85.0" cy="124.0" r="4" fill="#d62728"/>
<circle class="dot" cx="356.4" cy="401.3" r="4" fill="#d62728"/>
<circle class="dot" cx="796.4" cy="476.4" r="4" fill="#d62728"/>
<circle class="dot" cx="1165.0" cy="354.1" r="4" fill="#d62728"/>
<rect x="100" y="86" width="14" height="4" fill="#d62728"/>
<text x="122" y="92" font-size="13">rollout b</text>
<polyline class="line" points="85.0,151.0 356.4,97.6 796.4,133.2 1165.0,203.7" stroke="#9467bd"/>
<circle class="dot" cx="85.0" cy="151.0" r="4" fill="#9467bd"/>
<circle class="dot" cx="356.4" cy="97.6" r="4" fill="#9467bd"/>
<circle class="dot" cx="796.4" cy="133.2" r="4" fill="#9467bd"/>
<circle class="dot" cx="1165.0" cy="203.7" r="4" fill="#9467bd"/>
<rect x="320" y="86" width="14" height="4" fill="#9467bd"/>
<text x="342" y="92" font-size="13">RHS</text>
<polyline class="line" points="85.0,467.6 356.4,588.4 796.4,587.0 1165.0,581.1" stroke="#8c564b"/>
<circle class="dot" cx="85.0" cy="467.6" r="4" fill="#8c564b"/>
<circle class="dot" cx="356.4" cy="588.4" r="4" fill="#8c564b"/>
<circle class="dot" cx="796.4" cy="587.0" r="4" fill="#8c564b"/>
<circle class="dot" cx="1165.0" cy="581.1" r="4" fill="#8c564b"/>
<rect x="540" y="86" width="14" height="4" fill="#8c564b"/>
<text x="562" y="92" font-size="13">pressure head</text>
</svg>