<svg xmlns="http://www.w3.org/2000/svg" width="1200" height="720" viewBox="0 0 1200 720" role="img">
<style>text{font-family:Arial,sans-serif;fill:#1f2d3a}.axis{stroke:#536575;stroke-width:1.4}.grid{stroke:#d8e0e8;stroke-width:1}.line{fill:none;stroke-width:2.4}.dot{stroke:#fff;stroke-width:1.2}</style>
<rect x="0" y="0" width="1200" height="720" fill="#f7f9fb"/>
<text x="85" y="32" font-size="24" font-weight="700">V16 attractor error vs Reynolds number</text>
<line class="axis" x1="85" y1="630" x2="1165" y2="630"/>
<line class="axis" x1="85" y1="55" x2="85" y2="630"/>
<line class="grid" x1="85" y1="630.0" x2="1165" y2="630.0"/>
<text x="18" y="634.0" font-size="12">0.00</text>
<line class="grid" x1="85" y1="515.0" x2="1165" y2="515.0"/>
<text x="18" y="519.0" font-size="12">0.06</text>
<line class="grid" x1="85" y1="400.0" x2="1165" y2="400.0"/>
<text x="18" y="404.0" font-size="12">0.11</text>
<line class="grid" x1="85" y1="285.0" x2="1165" y2="285.0"/>
<text x="18" y="289.0" font-size="12">0.17</text>
<line class="grid" x1="85" y1="170.0" x2="1165" y2="170.0"/>
<text x="18" y="174.0" font-size="12">0.23</text>
<line class="grid" x1="85" y1="55.0" x2="1165" y2="55.0"/>
<text x="18" y="59.0" font-size="12">0.29</text>
<text x="65.0" y="658" font-size="12">70</text>
<text x="281.0" y="658" font-size="12">94</text>
<text x="497.0" y="658" font-size="12">118</text>
<text x="713.0" y="658" font-size="12">142</text>
<text x="929.0" y="658" font-size="12">166</text>
<text x="1145.0" y="658" font-size="12">190</text>
<text x="590.0" y="692" font-size="14">Reynolds number</text>
<text x="18" y="39" font-size="14">relative L2</text>
<polyline class="line" points="85.0,610.5 356.4,565.9 796.4,557.4 1165.0,566.3" stroke="#1f77b4"/>
<circle class="dot" cx="85.0" cy="610.5" r="4" fill="#1f77b4"/>
<circle class="dot" cx="356.4" cy="565.9" r="4" fill="#1f77b4"/>
<circle class="dot" cx="796.4" cy="557.4" r="4" fill="#1f77b4"/>
<circle class="dot" cx="1165.0" cy="566.3" r="4" fill="#1f77b4"/>
<rect x="100" y="62" width="14" height="4" fill="#1f77b4"/>
<text x="122" y="68" font-size="13">one-step a</text>
<polyline class="line" points="85.0,556.1 356.4,519.8 796.4,416.1 1165.0,436.8" stroke="#ff7f0e"/>
<circle class="dot" cx="85.0" cy="556.1" r="4" fill="#ff7f0e"/>
<circle class="dot" cx="356.4" cy="519.8" r="4" fill="#ff7f0e"/>
<circle class="dot" cx="796.4" cy="416.1" r="4" fill="#ff7f0e"/>
<circle class="dot" cx="1165.0" cy="436.8" r="4" fill="#ff7f0e"/>
<rect x="320" y="62" width="14" height="4" fill="#ff7f0e"/>
<text x="342" y="68" font-size="13">one-step b</text>
<polyline class="line" points="85.0,563.2 356.4,360.7 796.4,455.5 1165.0,511.9" stroke="#2ca02c"/>
<circle class="dot" cx="85.0" cy="563.2" r="4" fill="#2ca02c"/>
<circle class="dot" cx="356.4" cy="360.7" r="4" fill="#2ca02c"/>
<circle class="dot" cx="796.4" cy="455.5" r="4" fill="#2ca02c"/>
<circle class="dot" cx="1165.0" cy="511.9" r="4" fill="#2ca02c"/>
<rect x="540" y="62" width="14" height="4" fill="#2ca02c"/>
<text x="562" y="68" font-size="13">rollout a</text>
<polyline class="line" points="85.0,529.8 356.4,268.4 796.4,104.1 1165.0,185.1" stroke="#d62728"/>
<circle class="dot" cx="85.0" cy="529.8" r="4" fill="#d62728"/>
<circle class="dot" cx="356.4" cy="268.4" r="4" fill="#d62728"/>
<circle class="dot" cx="796.4" cy="104.1" r="4" fill="#d62728"/>
<circle class="dot" cx="1165.0" cy="185.1" r="4" fill="#d62728"/>
<rect x="100" y="86" width="14" height="4" fill="#d62728"/>
<text x="122" y="92" font-size="13">rollout b</text>
<polyline class="line" points="85.0,102.6 356.4,109.9 796.4,97.6 1165.0,189.6" stroke="#9467bd"/>
<circle class="dot" cx="85.0" cy="102.6" r="4" fill="#9467bd"/>
<circle class="dot" cx="356.4" cy="109.9" r="4" fill="#9467bd"/>
<circle class="dot" cx="796.4" cy="97.6" r="4" fill="#9467bd"/>
<circle class="dot" cx="1165.0" cy="189.6" r="4" fill="#9467bd"/>
<rect x="320" y="86" width="14" height="4" fill="#9467bd"/>
<text x="342" y="92" font-size="13">RHS</text>
<polyline class="line" points="85.0,559.6 356.4,547.7 796.4,498.6 1165.0,538.8" stroke="#8c564b"/>
<circle class="dot" cx="85.0" cy="559.6" r="4" fill="#8c564b"/>
<circle class="dot" cx="356.4" cy="547.7" r="4" fill="#8c564b"/>
<circle class="dot" cx="796.4" cy="498.6" r="4" fill="#8c564b"/>
<circle class="dot" cx="1165.0" cy="538.8" r="4" fill="#8c564b"/>
<rect x="540" y="86" width="14" height="4" fill="#8c564b"/>
<text x="562" y="92" font-size="13">pressure head</text>
</svg>