<svg xmlns="http://www.w3.org/2000/svg" width="1200" height="720" viewBox="0 0 1200 720" role="img">
<style>text{font-family:Arial,sans-serif;fill:#1f2d3a}.axis{stroke:#536575;stroke-width:1.4}.grid{stroke:#d8e0e8;stroke-width:1}.line{fill:none;stroke-width:2.4}.dot{stroke:#fff;stroke-width:1.2}</style>
<rect x="0" y="0" width="1200" height="720" fill="#f7f9fb"/>
<text x="85" y="32" font-size="24" font-weight="700">V16 attractor error vs Reynolds number</text>
<line class="axis" x1="85" y1="630" x2="1165" y2="630"/>
<line class="axis" x1="85" y1="55" x2="85" y2="630"/>
<line class="grid" x1="85" y1="630.0" x2="1165" y2="630.0"/>
<text x="18" y="634.0" font-size="12">0.00</text>
<line class="grid" x1="85" y1="515.0" x2="1165" y2="515.0"/>
<text x="18" y="519.0" font-size="12">0.21</text>
<line class="grid" x1="85" y1="400.0" x2="1165" y2="400.0"/>
<text x="18" y="404.0" font-size="12">0.42</text>
<line class="grid" x1="85" y1="285.0" x2="1165" y2="285.0"/>
<text x="18" y="289.0" font-size="12">0.63</text>
<line class="grid" x1="85" y1="170.0" x2="1165" y2="170.0"/>
<text x="18" y="174.0" font-size="12">0.84</text>
<line class="grid" x1="85" y1="55.0" x2="1165" y2="55.0"/>
<text x="18" y="59.0" font-size="12">1.06</text>
<text x="65.0" y="658" font-size="12">100</text>
<text x="281.0" y="658" font-size="12">109</text>
<text x="497.0" y="658" font-size="12">118</text>
<text x="713.0" y="658" font-size="12">127</text>
<text x="929.0" y="658" font-size="12">136</text>
<text x="1145.0" y="658" font-size="12">145</text>
<text x="590.0" y="692" font-size="14">Reynolds number</text>
<text x="18" y="39" font-size="14">relative L2</text>
<polyline class="line" points="85.0,581.1 121.5,581.6 576.9,593.1 1165.0,590.3" stroke="#1f77b4"/>
<circle class="dot" cx="85.0" cy="581.1" r="4" fill="#1f77b4"/>
<circle class="dot" cx="121.5" cy="581.6" r="4" fill="#1f77b4"/>
<circle class="dot" cx="576.9" cy="593.1" r="4" fill="#1f77b4"/>
<circle class="dot" cx="1165.0" cy="590.3" r="4" fill="#1f77b4"/>
<rect x="100" y="62" width="14" height="4" fill="#1f77b4"/>
<text x="122" y="68" font-size="13">one-step a</text>
<polyline class="line" points="85.0,587.2 121.5,586.6 576.9,586.6 1165.0,591.3" stroke="#ff7f0e"/>
<circle class="dot" cx="85.0" cy="587.2" r="4" fill="#ff7f0e"/>
<circle class="dot" cx="121.5" cy="586.6" r="4" fill="#ff7f0e"/>
<circle class="dot" cx="576.9" cy="586.6" r="4" fill="#ff7f0e"/>
<circle class="dot" cx="1165.0" cy="591.3" r="4" fill="#ff7f0e"/>
<rect x="320" y="62" width="14" height="4" fill="#ff7f0e"/>
<text x="342" y="68" font-size="13">one-step b</text>
<polyline class="line" points="85.0,595.3 121.5,599.3 576.9,609.0 1165.0,590.9" stroke="#2ca02c"/>
<circle class="dot" cx="85.0" cy="595.3" r="4" fill="#2ca02c"/>
<circle class="dot" cx="121.5" cy="599.3" r="4" fill="#2ca02c"/>
<circle class="dot" cx="576.9" cy="609.0" r="4" fill="#2ca02c"/>
<circle class="dot" cx="1165.0" cy="590.9" r="4" fill="#2ca02c"/>
<rect x="540" y="62" width="14" height="4" fill="#2ca02c"/>
<text x="562" y="68" font-size="13">rollout a</text>
<polyline class="line" points="85.0,599.9 121.5,603.9 576.9,600.1 1165.0,590.6" stroke="#d62728"/>
<circle class="dot" cx="85.0" cy="599.9" r="4" fill="#d62728"/>
<circle class="dot" cx="121.5" cy="603.9" r="4" fill="#d62728"/>
<circle class="dot" cx="576.9" cy="600.1" r="4" fill="#d62728"/>
<circle class="dot" cx="1165.0" cy="590.6" r="4" fill="#d62728"/>
<rect x="100" y="86" width="14" height="4" fill="#d62728"/>
<text x="122" y="92" font-size="13">rollout b</text>
<polyline class="line" points="85.0,146.9 121.5,124.8 576.9,98.6 1165.0,97.6" stroke="#9467bd"/>
<circle class="dot" cx="85.0" cy="146.9" r="4" fill="#9467bd"/>
<circle class="dot" cx="121.5" cy="124.8" r="4" fill="#9467bd"/>
<circle class="dot" cx="576.9" cy="98.6" r="4" fill="#9467bd"/>
<circle class="dot" cx="1165.0" cy="97.6" r="4" fill="#9467bd"/>
<rect x="320" y="86" width="14" height="4" fill="#9467bd"/>
<text x="342" y="92" font-size="13">RHS</text>
<polyline class="line" points="85.0,625.3 121.5,624.5 576.9,603.8 1165.0,626.5" stroke="#8c564b"/>
<circle class="dot" cx="85.0" cy="625.3" r="4" fill="#8c564b"/>
<circle class="dot" cx="121.5" cy="624.5" r="4" fill="#8c564b"/>
<circle class="dot" cx="576.9" cy="603.8" r="4" fill="#8c564b"/>
<circle class="dot" cx="1165.0" cy="626.5" r="4" fill="#8c564b"/>
<rect x="540" y="86" width="14" height="4" fill="#8c564b"/>
<text x="562" y="92" font-size="13">pressure head</text>
</svg>